<svg preserveAspectRatio="none" overflow="visible" style="display: block;" width="100" height="300" viewBox="0 0 100 300" fill="none" xmlns="http://www.w3.org/2000/svg">
<g id="&#229;&#189;&#169;&#232;&#155;&#139;&#231;&#137;&#185;&#230;&#149;&#136;/&#229;&#183;&#166;&#229;&#189;&#169;&#229;&#184;&#166;">
<path id="Vector" d="M82 7C31 45 91 80 37 119C7 141 65 169 25 214C7 235 28 258 12 292" stroke="#DFA29B" stroke-width="6" stroke-linecap="round"/>
<path id="Vector_2" d="M52 2C12 38 62 78 19 104C1 115 32 144 14 177" stroke="#E9C983" stroke-width="4" stroke-linecap="round"/>
<path id="Vector_3" d="M94 72C54 98 93 135 52 159C24 176 69 206 37 247" stroke="#F7E9DB" stroke-width="8" stroke-linecap="round"/>
<path id="Vector_4" d="M67 36L84 46L70 59L67 36Z" fill="#C9827C"/>
<path id="Vector_5" d="M30 190L48 198L35 213L30 190Z" fill="#E4B55F"/>
</g>
</svg>
